<svg xmlns="http://www.w3.org/2000/svg" height="24" width="24"><path d="m19.375 20.55-7.3-7.325L8.95 16.35q.225.375.325.788.1.412.1.862 0 1.375-.963 2.337-.962.963-2.337.963-1.35 0-2.325-.963-.975-.962-.975-2.337 0-1.35.963-2.325.962-.975 2.337-.975.45 0 .863.1.412.1.787.325L10.85 12 7.725 8.875q-.375.225-.787.325-.413.1-.863.1-1.375 0-2.337-.963Q2.775 7.375 2.775 6q0-1.35.963-2.325Q4.7 2.7 6.075 2.7q1.375 0 2.337.962.963.963.963 2.338 0 .45-.1.862-.1.413-.325.788l12.275 12.275v.625Zm-4.75-9.85-1.25-1.25 6-6h1.85v.625Zm-8.55-2.4q.95 0 1.625-.675T8.375 6q0-.95-.675-1.625T6.075 3.7q-.95 0-1.625.675T3.775 6q0 .95.675 1.625t1.625.675Zm6 3.7Zm-6 8.3q.95 0 1.625-.675T8.375 18q0-.95-.675-1.625T6.075 15.7q-.95 0-1.625.675T3.775 18q0 .95.675 1.625t1.625.675Z"/></svg>